<svg xmlns="http://www.w3.org/2000/svg" viewBox="0 0 1200 1050" font-family="Inter, -apple-system, system-ui, sans-serif">
  <defs>
    <linearGradient id="hGrad" x1="0%" y1="0%" x2="100%" y2="0%">
      <stop offset="0%" style="stop-color:#4F46E5"/>
      <stop offset="100%" style="stop-color:#7C3AED"/>
    </linearGradient>
    <linearGradient id="stepGrad" x1="0%" y1="0%" x2="100%" y2="100%">
      <stop offset="0%" style="stop-color:#4F46E5"/>
      <stop offset="100%" style="stop-color:#6366F1"/>
    </linearGradient>
    <marker id="arrowBlue" markerWidth="10" markerHeight="7" refX="9" refY="3.5" orient="auto">
      <polygon points="0 0, 10 3.5, 0 7" fill="#6366F1"/>
    </marker>
    <marker id="arrowGreen" markerWidth="10" markerHeight="7" refX="9" refY="3.5" orient="auto">
      <polygon points="0 0, 10 3.5, 0 7" fill="#16A34A"/>
    </marker>
    <marker id="arrowOrange" markerWidth="10" markerHeight="7" refX="9" refY="3.5" orient="auto">
      <polygon points="0 0, 10 3.5, 0 7" fill="#EA580C"/>
    </marker>
    <marker id="arrowPurple" markerWidth="10" markerHeight="7" refX="9" refY="3.5" orient="auto">
      <polygon points="0 0, 10 3.5, 0 7" fill="#9333EA"/>
    </marker>
    <marker id="arrowPink" markerWidth="10" markerHeight="7" refX="9" refY="3.5" orient="auto">
      <polygon points="0 0, 10 3.5, 0 7" fill="#DB2777"/>
    </marker>
    <marker id="arrowGray" markerWidth="10" markerHeight="7" refX="9" refY="3.5" orient="auto">
      <polygon points="0 0, 10 3.5, 0 7" fill="#6B7280"/>
    </marker>
    <filter id="shadow" x="-2%" y="-2%" width="104%" height="108%">
      <feDropShadow dx="0" dy="2" stdDeviation="3" flood-color="#000" flood-opacity="0.1"/>
    </filter>
    <filter id="shadowSm" x="-1%" y="-1%" width="102%" height="106%">
      <feDropShadow dx="0" dy="1" stdDeviation="2" flood-color="#000" flood-opacity="0.08"/>
    </filter>
  </defs>

  <!-- Background -->
  <rect width="1200" height="1050" rx="12" fill="#F8FAFC"/>

  <!-- Title -->
  <rect x="0" y="0" width="1200" height="64" rx="12" fill="url(#hGrad)"/>
  <rect x="0" y="24" width="1200" height="40" fill="url(#hGrad)"/>
  <text x="600" y="38" text-anchor="middle" fill="white" font-size="22" font-weight="700">Credit Application - Processing Flow</text>
  <text x="600" y="55" text-anchor="middle" fill="#C7D2FE" font-size="11">Step-by-step lifecycle from submission to disbursement</text>

  <!-- ═══════════════════════════════════════════════════ -->
  <!-- STEP 1: User Submits Application -->
  <!-- ═══════════════════════════════════════════════════ -->
  <circle cx="55" cy="110" r="18" fill="url(#stepGrad)"/>
  <text x="55" y="115" text-anchor="middle" fill="white" font-size="14" font-weight="700">1</text>

  <rect x="85" y="88" width="480" height="48" rx="10" fill="white" stroke="#A5B4FC" stroke-width="1.5" filter="url(#shadow)"/>
  <text x="100" y="108" fill="#312E81" font-size="13" font-weight="700">User Submits Credit Application</text>
  <text x="100" y="124" fill="#6366F1" font-size="10">POST /api/applications or LiveView form at /applications/new</text>

  <!-- Request payload -->
  <rect x="600" y="82" width="280" height="60" rx="8" fill="#F1F5F9" stroke="#CBD5E1" stroke-width="1" filter="url(#shadowSm)"/>
  <text x="615" y="100" fill="#475569" font-size="9" font-weight="600" font-family="monospace">{ "country": "ES",</text>
  <text x="615" y="112" fill="#475569" font-size="9" font-family="monospace">  "identity_document": "12345678Z",</text>
  <text x="615" y="124" fill="#475569" font-size="9" font-family="monospace">  "amount": "25000",</text>
  <text x="615" y="136" fill="#475569" font-size="9" font-family="monospace">  "monthly_income": "5000" }</text>

  <!-- Auth badge -->
  <rect x="910" y="88" width="130" height="48" rx="8" fill="#FEF3C7" stroke="#F59E0B" stroke-width="1.2" filter="url(#shadowSm)"/>
  <text x="975" y="108" text-anchor="middle" fill="#92400E" font-size="10" font-weight="600">JWT Required</text>
  <text x="975" y="122" text-anchor="middle" fill="#B45309" font-size="9">Guardian Pipeline</text>

  <!-- Arrow down -->
  <line x1="325" y1="136" x2="325" y2="162" stroke="#6366F1" stroke-width="2" marker-end="url(#arrowBlue)"/>

  <!-- ═══════════════════════════════════════════════════ -->
  <!-- STEP 2: Country Validation -->
  <!-- ═══════════════════════════════════════════════════ -->
  <circle cx="55" cy="195" r="18" fill="url(#stepGrad)"/>
  <text x="55" y="200" text-anchor="middle" fill="white" font-size="14" font-weight="700">2</text>

  <rect x="85" y="170" width="480" height="54" rx="10" fill="white" stroke="#86EFAC" stroke-width="1.5" filter="url(#shadow)"/>
  <text x="100" y="190" fill="#14532D" font-size="13" font-weight="700">Country-Specific Validation</text>
  <text x="100" y="206" fill="#16A34A" font-size="10">CountryRegistry.validate(country, attrs) &#8594; Document + Business Rules</text>

  <!-- Country detail boxes -->
  <rect x="600" y="166" width="170" height="62" rx="8" fill="#F0FDF4" stroke="#86EFAC" stroke-width="1.2" filter="url(#shadowSm)"/>
  <text x="685" y="182" text-anchor="middle" fill="#14532D" font-size="10" font-weight="700">Spain (ES)</text>
  <text x="685" y="196" text-anchor="middle" fill="#16A34A" font-size="8.5">DNI: 8 digits + control letter</text>
  <text x="685" y="208" text-anchor="middle" fill="#16A34A" font-size="8.5">amount &#8804; 6x monthly_income</text>
  <text x="685" y="220" text-anchor="middle" fill="#16A34A" font-size="8.5">review if &#8805; 50,000 EUR</text>

  <rect x="790" y="166" width="170" height="62" rx="8" fill="#F0FDF4" stroke="#86EFAC" stroke-width="1.2" filter="url(#shadowSm)"/>
  <text x="875" y="182" text-anchor="middle" fill="#14532D" font-size="10" font-weight="700">Mexico (MX)</text>
  <text x="875" y="196" text-anchor="middle" fill="#16A34A" font-size="8.5">CURP: 18 char alphanumeric</text>
  <text x="875" y="208" text-anchor="middle" fill="#16A34A" font-size="8.5">amount &#8804; 4x monthly_income</text>
  <text x="875" y="220" text-anchor="middle" fill="#16A34A" font-size="8.5">review if &#8805; 500K or &gt;3x</text>

  <rect x="980" y="166" width="170" height="62" rx="8" fill="#F0FDF4" stroke="#86EFAC" stroke-width="1.2" filter="url(#shadowSm)"/>
  <text x="1065" y="182" text-anchor="middle" fill="#14532D" font-size="10" font-weight="700">Colombia (CO)</text>
  <text x="1065" y="196" text-anchor="middle" fill="#16A34A" font-size="8.5">CC: 6-10 digits</text>
  <text x="1065" y="208" text-anchor="middle" fill="#16A34A" font-size="8.5">(debt+amount) &#8804; 5x income</text>
  <text x="1065" y="220" text-anchor="middle" fill="#16A34A" font-size="8.5">review if &#8805; 100M COP</text>

  <!-- Validation result -->
  <rect x="250" y="228" width="150" height="24" rx="5" fill="#DCFCE7" stroke="#4ADE80" stroke-width="1"/>
  <text x="325" y="244" text-anchor="middle" fill="#166534" font-size="10" font-weight="600">:ok &#8594; proceed</text>

  <rect x="420" y="228" width="150" height="24" rx="5" fill="#FEE2E2" stroke="#FCA5A5" stroke-width="1"/>
  <text x="495" y="244" text-anchor="middle" fill="#991B1B" font-size="10" font-weight="600">{:error, msg} &#8594; reject</text>

  <!-- Arrow down -->
  <line x1="325" y1="252" x2="325" y2="276" stroke="#16A34A" stroke-width="2" marker-end="url(#arrowGreen)"/>

  <!-- ═══════════════════════════════════════════════════ -->
  <!-- STEP 3: Atomic Insert -->
  <!-- ═══════════════════════════════════════════════════ -->
  <circle cx="55" cy="310" r="18" fill="url(#stepGrad)"/>
  <text x="55" y="315" text-anchor="middle" fill="white" font-size="14" font-weight="700">3</text>

  <rect x="85" y="285" width="480" height="54" rx="10" fill="white" stroke="#FDBA74" stroke-width="1.5" filter="url(#shadow)"/>
  <text x="100" y="305" fill="#9A3412" font-size="13" font-weight="700">Atomic Insert (Ecto.Multi)</text>
  <text x="100" y="321" fill="#EA580C" font-size="10">Transaction: insert record + enqueue BankInfoWorker + enqueue AuditWorker</text>

  <!-- Multi steps -->
  <rect x="600" y="282" width="160" height="30" rx="6" fill="#FFF7ED" stroke="#FDBA74" stroke-width="1"/>
  <text x="680" y="301" text-anchor="middle" fill="#9A3412" font-size="9" font-weight="600">Multi.insert(:application)</text>

  <line x1="760" y1="297" x2="780" y2="297" stroke="#EA580C" stroke-width="1.5" marker-end="url(#arrowOrange)"/>

  <rect x="790" y="282" width="170" height="30" rx="6" fill="#FFF7ED" stroke="#FDBA74" stroke-width="1"/>
  <text x="875" y="301" text-anchor="middle" fill="#9A3412" font-size="9" font-weight="600">Oban.insert(:bank_info_job)</text>

  <line x1="960" y1="297" x2="980" y2="297" stroke="#EA580C" stroke-width="1.5" marker-end="url(#arrowOrange)"/>

  <rect x="990" y="282" width="150" height="30" rx="6" fill="#FFF7ED" stroke="#FDBA74" stroke-width="1"/>
  <text x="1065" y="301" text-anchor="middle" fill="#9A3412" font-size="9" font-weight="600">Oban.insert(:audit_job)</text>

  <text x="600" y="328" fill="#78716C" font-size="9" font-style="italic">All three steps succeed or all rollback (ACID)</text>

  <!-- Status badge -->
  <rect x="1060" y="318" width="90" height="22" rx="11" fill="#DBEAFE" stroke="#3B82F6" stroke-width="1"/>
  <text x="1105" y="333" text-anchor="middle" fill="#1D4ED8" font-size="9" font-weight="700">pending</text>

  <!-- Arrow down -->
  <line x1="325" y1="339" x2="325" y2="370" stroke="#EA580C" stroke-width="2" marker-end="url(#arrowOrange)"/>

  <!-- ═══════════════════════════════════════════════════ -->
  <!-- STEP 4: PostgreSQL Trigger -->
  <!-- ═══════════════════════════════════════════════════ -->
  <circle cx="55" cy="403" r="18" fill="url(#stepGrad)"/>
  <text x="55" y="408" text-anchor="middle" fill="white" font-size="14" font-weight="700">4</text>

  <rect x="85" y="378" width="480" height="54" rx="10" fill="white" stroke="#D8B4FE" stroke-width="1.5" filter="url(#shadow)"/>
  <text x="100" y="398" fill="#581C87" font-size="13" font-weight="700">PostgreSQL Trigger Fires (pg_notify)</text>
  <text x="100" y="414" fill="#9333EA" font-size="10">INSERT trigger &#8594; notify_credit_application_changes() &#8594; NOTIFY channel</text>

  <!-- Event flow -->
  <rect x="600" y="375" width="200" height="40" rx="8" fill="#FDF4FF" stroke="#D8B4FE" stroke-width="1.2" filter="url(#shadowSm)"/>
  <text x="700" y="393" text-anchor="middle" fill="#581C87" font-size="10" font-weight="600">PostgreSQL NOTIFY</text>
  <text x="700" y="407" text-anchor="middle" fill="#9333EA" font-size="9">{op: INSERT, id, country, status}</text>

  <line x1="800" y1="395" x2="830" y2="395" stroke="#9333EA" stroke-width="1.5" marker-end="url(#arrowPurple)"/>

  <rect x="840" y="375" width="200" height="40" rx="8" fill="#FDF4FF" stroke="#D8B4FE" stroke-width="1.2" filter="url(#shadowSm)"/>
  <text x="940" y="393" text-anchor="middle" fill="#581C87" font-size="10" font-weight="600">Repo.Listener (GenServer)</text>
  <text x="940" y="407" text-anchor="middle" fill="#9333EA" font-size="9">Receives + broadcasts PubSub</text>

  <!-- Arrow down -->
  <line x1="325" y1="432" x2="325" y2="460" stroke="#9333EA" stroke-width="2" marker-end="url(#arrowPurple)"/>

  <!-- Also enqueues risk -->
  <line x1="940" y1="415" x2="940" y2="450" stroke="#9333EA" stroke-width="1.5" stroke-dasharray="4,3"/>
  <rect x="855" y="450" width="170" height="26" rx="6" fill="#FEF3C7" stroke="#F59E0B" stroke-width="1"/>
  <text x="940" y="467" text-anchor="middle" fill="#92400E" font-size="9" font-weight="600">Enqueue RiskAssessmentWorker</text>

  <!-- ═══════════════════════════════════════════════════ -->
  <!-- STEP 5: Parallel Async Processing -->
  <!-- ═══════════════════════════════════════════════════ -->
  <circle cx="55" cy="500" r="18" fill="url(#stepGrad)"/>
  <text x="55" y="505" text-anchor="middle" fill="white" font-size="14" font-weight="700">5</text>

  <rect x="85" y="478" width="1065" height="132" rx="10" fill="#FFFBEB" stroke="#FCD34D" stroke-width="1.5" filter="url(#shadow)"/>
  <text x="100" y="498" fill="#92400E" font-size="13" font-weight="700">Oban Workers Execute Asynchronously (Parallel)</text>

  <!-- Worker A: Bank Info -->
  <rect x="105" y="510" width="240" height="86" rx="8" fill="white" stroke="#FB923C" stroke-width="1.2" filter="url(#shadowSm)"/>
  <rect x="105" y="510" width="240" height="24" rx="8" fill="#FED7AA"/>
  <rect x="105" y="524" width="240" height="4" fill="#FED7AA"/>
  <text x="225" y="526" text-anchor="middle" fill="#9A3412" font-size="10" font-weight="700">BankInfoWorker</text>
  <text x="120" y="548" fill="#EA580C" font-size="9">1. Check idempotency (bank_info empty?)</text>
  <text x="120" y="562" fill="#EA580C" font-size="9">2. Call BankingProvider.fetch_client_info</text>
  <text x="120" y="576" fill="#EA580C" font-size="9">3. Update application.bank_info</text>
  <text x="120" y="590" fill="#EA580C" font-size="9">4. Invalidate cache</text>

  <!-- Worker B: Risk Assessment -->
  <rect x="370" y="510" width="240" height="86" rx="8" fill="white" stroke="#FB923C" stroke-width="1.2" filter="url(#shadowSm)"/>
  <rect x="370" y="510" width="240" height="24" rx="8" fill="#FED7AA"/>
  <rect x="370" y="524" width="240" height="4" fill="#FED7AA"/>
  <text x="490" y="526" text-anchor="middle" fill="#9A3412" font-size="10" font-weight="700">RiskAssessmentWorker</text>
  <text x="385" y="548" fill="#EA580C" font-size="9">1. Load application + bank_info</text>
  <text x="385" y="562" fill="#EA580C" font-size="9">2. Calculate risk_score (Decimal)</text>
  <text x="385" y="576" fill="#EA580C" font-size="9">3. Determine: approved/rejected/review</text>
  <text x="385" y="590" fill="#EA580C" font-size="9">4. Update status + risk_score</text>

  <!-- Worker C: Audit -->
  <rect x="635" y="510" width="240" height="86" rx="8" fill="white" stroke="#FB923C" stroke-width="1.2" filter="url(#shadowSm)"/>
  <rect x="635" y="510" width="240" height="24" rx="8" fill="#FED7AA"/>
  <rect x="635" y="524" width="240" height="4" fill="#FED7AA"/>
  <text x="755" y="526" text-anchor="middle" fill="#9A3412" font-size="10" font-weight="700">AuditWorker</text>
  <text x="650" y="548" fill="#EA580C" font-size="9">1. Receives entity_type + action</text>
  <text x="650" y="562" fill="#EA580C" font-size="9">2. Creates audit_logs record</text>
  <text x="650" y="576" fill="#EA580C" font-size="9">3. Stores changes as JSONB</text>
  <text x="650" y="590" fill="#EA580C" font-size="9">4. Links to actor_id</text>

  <!-- Worker D: Webhook -->
  <rect x="900" y="510" width="230" height="86" rx="8" fill="white" stroke="#FB923C" stroke-width="1.2" filter="url(#shadowSm)"/>
  <rect x="900" y="510" width="230" height="24" rx="8" fill="#FED7AA"/>
  <rect x="900" y="524" width="230" height="4" fill="#FED7AA"/>
  <text x="1015" y="526" text-anchor="middle" fill="#9A3412" font-size="10" font-weight="700">WebhookWorker</text>
  <text x="915" y="548" fill="#EA580C" font-size="9">1. Fires on status_changed events</text>
  <text x="915" y="562" fill="#EA580C" font-size="9">2. HTTP POST to webhook URLs</text>
  <text x="915" y="576" fill="#EA580C" font-size="9">3. Let-it-crash (Oban retries)</text>
  <text x="915" y="590" fill="#EA580C" font-size="9">4. Unique per application+event</text>

  <!-- Arrow down from step 5 -->
  <line x1="490" y1="596" x2="490" y2="630" stroke="#EA580C" stroke-width="2" marker-end="url(#arrowOrange)"/>

  <!-- ═══════════════════════════════════════════════════ -->
  <!-- STEP 6: Status Transition -->
  <!-- ═══════════════════════════════════════════════════ -->
  <circle cx="55" cy="660" r="18" fill="url(#stepGrad)"/>
  <text x="55" y="665" text-anchor="middle" fill="white" font-size="14" font-weight="700">6</text>

  <rect x="85" y="638" width="1065" height="54" rx="10" fill="white" stroke="#F9A8D4" stroke-width="1.5" filter="url(#shadow)"/>
  <text x="100" y="658" fill="#9D174D" font-size="13" font-weight="700">State Machine Transitions</text>
  <text x="100" y="678" fill="#DB2777" font-size="10">StateMachine.transition/2 validates allowed transitions &#8594; Ecto.Multi (update + audit + webhook)</text>

  <!-- State flow -->
  <rect x="600" y="640" width="80" height="26" rx="13" fill="#DBEAFE" stroke="#3B82F6" stroke-width="1.2"/>
  <text x="640" y="657" text-anchor="middle" fill="#1D4ED8" font-size="9" font-weight="700">pending</text>

  <line x1="680" y1="653" x2="700" y2="653" stroke="#6B7280" stroke-width="1.5" marker-end="url(#arrowGray)"/>

  <rect x="710" y="640" width="80" height="26" rx="13" fill="#FEF3C7" stroke="#F59E0B" stroke-width="1.2"/>
  <text x="750" y="657" text-anchor="middle" fill="#92400E" font-size="9" font-weight="700">validating</text>

  <line x1="790" y1="646" x2="810" y2="640" stroke="#6B7280" stroke-width="1.2" marker-end="url(#arrowGray)"/>
  <line x1="790" y1="653" x2="810" y2="653" stroke="#6B7280" stroke-width="1.2" marker-end="url(#arrowGray)"/>
  <line x1="790" y1="660" x2="810" y2="666" stroke="#6B7280" stroke-width="1.2" marker-end="url(#arrowGray)"/>

  <rect x="820" y="628" width="80" height="22" rx="11" fill="#DCFCE7" stroke="#4ADE80" stroke-width="1.2"/>
  <text x="860" y="643" text-anchor="middle" fill="#166534" font-size="9" font-weight="700">approved</text>

  <rect x="820" y="652" width="80" height="22" rx="11" fill="#FEE2E2" stroke="#FCA5A5" stroke-width="1.2"/>
  <text x="860" y="667" text-anchor="middle" fill="#991B1B" font-size="9" font-weight="700">rejected</text>

  <rect x="820" y="676" width="80" height="22" rx="11" fill="#E0E7FF" stroke="#A5B4FC" stroke-width="1.2"/>
  <text x="860" y="691" text-anchor="middle" fill="#3730A3" font-size="8" font-weight="700">review_req</text>

  <line x1="900" y1="639" x2="920" y2="639" stroke="#6B7280" stroke-width="1.2" marker-end="url(#arrowGray)"/>
  <rect x="930" y="628" width="80" height="22" rx="11" fill="#D1FAE5" stroke="#34D399" stroke-width="1.5"/>
  <text x="970" y="643" text-anchor="middle" fill="#065F46" font-size="9" font-weight="700">disbursed</text>

  <!-- Arrow down -->
  <line x1="490" y1="692" x2="490" y2="720" stroke="#DB2777" stroke-width="2" marker-end="url(#arrowPink)"/>

  <!-- ═══════════════════════════════════════════════════ -->
  <!-- STEP 7: Real-time Updates -->
  <!-- ═══════════════════════════════════════════════════ -->
  <circle cx="55" cy="750" r="18" fill="url(#stepGrad)"/>
  <text x="55" y="755" text-anchor="middle" fill="white" font-size="14" font-weight="700">7</text>

  <rect x="85" y="728" width="480" height="54" rx="10" fill="white" stroke="#C084FC" stroke-width="1.5" filter="url(#shadow)"/>
  <text x="100" y="748" fill="#581C87" font-size="13" font-weight="700">Real-time UI Updates</text>
  <text x="100" y="764" fill="#9333EA" font-size="10">PubSub broadcast &#8594; LiveView handle_info &#8594; assign + re-render</text>

  <!-- LiveView update flow -->
  <rect x="600" y="726" width="180" height="34" rx="8" fill="#FDF4FF" stroke="#C084FC" stroke-width="1.2" filter="url(#shadowSm)"/>
  <text x="690" y="740" text-anchor="middle" fill="#581C87" font-size="10" font-weight="600">PubSub Broadcast</text>
  <text x="690" y="754" text-anchor="middle" fill="#9333EA" font-size="8.5">:application_changed</text>

  <line x1="780" y1="743" x2="810" y2="743" stroke="#9333EA" stroke-width="1.5" marker-end="url(#arrowPurple)"/>

  <rect x="820" y="726" width="160" height="34" rx="8" fill="#FDF4FF" stroke="#C084FC" stroke-width="1.2" filter="url(#shadowSm)"/>
  <text x="900" y="740" text-anchor="middle" fill="#581C87" font-size="10" font-weight="600">LiveView Process</text>
  <text x="900" y="754" text-anchor="middle" fill="#9333EA" font-size="8.5">handle_info/2</text>

  <line x1="980" y1="743" x2="1010" y2="743" stroke="#9333EA" stroke-width="1.5" marker-end="url(#arrowPurple)"/>

  <rect x="1020" y="726" width="120" height="34" rx="8" fill="#FDF4FF" stroke="#C084FC" stroke-width="1.2" filter="url(#shadowSm)"/>
  <text x="1080" y="740" text-anchor="middle" fill="#581C87" font-size="10" font-weight="600">Browser</text>
  <text x="1080" y="754" text-anchor="middle" fill="#9333EA" font-size="8.5">WebSocket push</text>

  <!-- Arrow down -->
  <line x1="490" y1="782" x2="490" y2="810" stroke="#9333EA" stroke-width="2" marker-end="url(#arrowPurple)"/>

  <!-- ═══════════════════════════════════════════════════ -->
  <!-- STEP 8: Caching -->
  <!-- ═══════════════════════════════════════════════════ -->
  <circle cx="55" cy="840" r="18" fill="url(#stepGrad)"/>
  <text x="55" y="845" text-anchor="middle" fill="white" font-size="14" font-weight="700">8</text>

  <rect x="85" y="818" width="480" height="54" rx="10" fill="white" stroke="#FCD34D" stroke-width="1.5" filter="url(#shadow)"/>
  <text x="100" y="838" fill="#92400E" font-size="13" font-weight="700">Cache Invalidation</text>
  <text x="100" y="854" fill="#B45309" font-size="10">On every status change: invalidate application cache + listing cache per country</text>

  <!-- Cache flow -->
  <rect x="600" y="816" width="180" height="40" rx="8" fill="#FEF3C7" stroke="#FCD34D" stroke-width="1.2" filter="url(#shadowSm)"/>
  <text x="690" y="834" text-anchor="middle" fill="#92400E" font-size="10" font-weight="600">Cachex (ETS)</text>
  <text x="690" y="848" text-anchor="middle" fill="#B45309" font-size="8.5">application:{id} &#8594; delete</text>

  <rect x="810" y="816" width="180" height="40" rx="8" fill="#FEF3C7" stroke="#FCD34D" stroke-width="1.2" filter="url(#shadowSm)"/>
  <text x="900" y="834" text-anchor="middle" fill="#92400E" font-size="10" font-weight="600">Next Request</text>
  <text x="900" y="848" text-anchor="middle" fill="#B45309" font-size="8.5">Cache miss &#8594; fetch from DB</text>

  <line x1="780" y1="836" x2="810" y2="836" stroke="#B45309" stroke-width="1.5" marker-end="url(#arrowOrange)"/>

  <!-- ═══════════════════════════════════════════════════ -->
  <!-- LEGEND -->
  <!-- ═══════════════════════════════════════════════════ -->
  <rect x="30" y="890" width="1140" height="60" rx="10" fill="#FAFAFA" stroke="#E5E7EB" stroke-width="1"/>
  <text x="50" y="910" fill="#374151" font-size="11" font-weight="700" letter-spacing="1">KEY GUARANTEES</text>

  <rect x="60" y="920" width="180" height="22" rx="4" fill="#DCFCE7" stroke="#86EFAC" stroke-width="1"/>
  <text x="150" y="935" text-anchor="middle" fill="#166534" font-size="9" font-weight="600">Atomic: Ecto.Multi rollback</text>

  <rect x="255" y="920" width="180" height="22" rx="4" fill="#FEF3C7" stroke="#FCD34D" stroke-width="1"/>
  <text x="345" y="935" text-anchor="middle" fill="#92400E" font-size="9" font-weight="600">Idempotent: unique Oban jobs</text>

  <rect x="450" y="920" width="180" height="22" rx="4" fill="#EEF2FF" stroke="#A5B4FC" stroke-width="1"/>
  <text x="540" y="935" text-anchor="middle" fill="#3730A3" font-size="9" font-weight="600">Concurrent: optimistic locking</text>

  <rect x="645" y="920" width="180" height="22" rx="4" fill="#FDF4FF" stroke="#D8B4FE" stroke-width="1"/>
  <text x="735" y="935" text-anchor="middle" fill="#581C87" font-size="9" font-weight="600">Real-time: PubSub + LiveView</text>

  <rect x="840" y="920" width="160" height="22" rx="4" fill="#FDF2F8" stroke="#F9A8D4" stroke-width="1"/>
  <text x="920" y="935" text-anchor="middle" fill="#9D174D" font-size="9" font-weight="600">Decimal: no float money</text>

  <rect x="1015" y="920" width="140" height="22" rx="4" fill="#FFF7ED" stroke="#FDBA74" stroke-width="1"/>
  <text x="1085" y="935" text-anchor="middle" fill="#9A3412" font-size="9" font-weight="600">Secure: PII masking</text>

  <!-- Footer -->
  <text x="600" y="975" text-anchor="middle" fill="#94A3B8" font-size="10">CreditApp MVP - Multi-Country Credit Application Platform</text>
  <text x="1155" y="975" text-anchor="end" fill="#CBD5E1" font-size="9">v1.0.0</text>
</svg>